<svg xmlns="http://www.w3.org/2000/svg" xmlns:xlink="http://www.w3.org/1999/xlink" width="18" height="18" viewBox="0 0 18 18"><defs><style>.a{fill:#aaa;}.b{clip-path:url(#a);}.c{fill:#fff;}</style><clipPath id="a"><rect class="a" width="18" height="18" transform="translate(599 1818)"/></clipPath></defs><g class="b" transform="translate(-599 -1818)"><path class="c" d="M9,0C6.554,0,6.248.011,5.286.054A6.636,6.636,0,0,0,3.1.472,4.407,4.407,0,0,0,1.51,1.51,4.386,4.386,0,0,0,.472,3.1,6.616,6.616,0,0,0,.054,5.286C.009,6.248,0,6.554,0,9s.011,2.75.054,3.712a6.636,6.636,0,0,0,.418,2.182A4.412,4.412,0,0,0,1.51,16.485,4.4,4.4,0,0,0,3.1,17.523a6.643,6.643,0,0,0,2.184.418C6.248,17.987,6.554,18,9,18s2.75-.011,3.712-.054a6.658,6.658,0,0,0,2.184-.418,4.6,4.6,0,0,0,2.632-2.632,6.636,6.636,0,0,0,.418-2.184C17.991,11.748,18,11.442,18,9s-.011-2.75-.054-3.712a6.654,6.654,0,0,0-.423-2.18A4.416,4.416,0,0,0,16.485,1.51,4.386,4.386,0,0,0,14.891.472,6.619,6.619,0,0,0,12.709.054C11.748.009,11.442,0,9,0ZM9,1.62c2.4,0,2.688.012,3.636.053a4.958,4.958,0,0,1,1.67.312,2.961,2.961,0,0,1,1.708,1.707,4.968,4.968,0,0,1,.309,1.67c.043.949.053,1.237.053,3.636s-.011,2.688-.055,3.636A5.061,5.061,0,0,1,16,14.3a2.857,2.857,0,0,1-.675,1.036,2.812,2.812,0,0,1-1.035.675,5,5,0,0,1-1.676.309c-.955.043-1.237.053-3.643.053s-2.689-.011-3.643-.055a5.1,5.1,0,0,1-1.677-.316,2.786,2.786,0,0,1-1.034-.675A2.732,2.732,0,0,1,1.947,14.3a5.106,5.106,0,0,1-.315-1.676c-.034-.945-.046-1.237-.046-3.632S1.6,6.3,1.632,5.344a5.1,5.1,0,0,1,.315-1.675,2.667,2.667,0,0,1,.675-1.036,2.661,2.661,0,0,1,1.034-.675,4.98,4.98,0,0,1,1.666-.316C6.277,1.608,6.558,1.6,8.964,1.6ZM9,4.377A4.62,4.62,0,1,0,13.618,9,4.62,4.62,0,0,0,9,4.377ZM9,12a3,3,0,1,1,3-3A3,3,0,0,1,9,12Zm5.883-7.8A1.08,1.08,0,1,1,13.8,3.117,1.08,1.08,0,0,1,14.881,4.2Z" transform="translate(599 1818.002)"/></g></svg>