<svg xmlns="http://www.w3.org/2000/svg" xmlns:xlink="http://www.w3.org/1999/xlink" width="18" height="18" viewBox="0 0 18 18"><defs><style>.a{fill:#aaa;}.b{clip-path:url(#a);}.c{fill:#fff;}</style><clipPath id="a"><rect class="a" width="18" height="18" transform="translate(632 1818)"/></clipPath></defs><g class="b" transform="translate(-632 -1818)"><path class="c" d="M17.965,5.532a7.5,7.5,0,0,1-2.118.58A3.712,3.712,0,0,0,17.469,4.07a7.623,7.623,0,0,1-2.346.888A3.689,3.689,0,0,0,8.74,7.477a3.773,3.773,0,0,0,.1.843,10.451,10.451,0,0,1-7.6-3.843,3.615,3.615,0,0,0-.5,1.855A3.689,3.689,0,0,0,2.372,9.4,3.679,3.679,0,0,1,.7,8.94v.046A3.691,3.691,0,0,0,3.66,12.6,3.725,3.725,0,0,1,2,12.664a3.7,3.7,0,0,0,3.453,2.562A7.4,7.4,0,0,1,.876,16.8,7.834,7.834,0,0,1,0,16.762a10.5,10.5,0,0,0,5.668,1.656,10.421,10.421,0,0,0,10.5-10.489c0-.156,0-.315-.011-.472A7.45,7.45,0,0,0,18,5.546Z" transform="translate(632 1815.896)"/></g></svg>